PathFileType	4	(X/Y/Z)	Walk5.trc
DataRate	CameraRate	NumFrames	NumMarkers	Units	OrigDataRate	OrigDataStartFrame	OrigNumFrames
200.000000	200.000000	4	61	mm	200.000000	721	813
Frame#	Times		RCAR		LToe		LMT5		LTB1		RWRU		LLFC		RWRR		RFHD		RACR1		RFA1		LMT1		LUA1		LFA1		LTH2		LElbow		STRN		LACR1		LCAR		LASI		RTH3		RTB2		LWRU		RPSI		RLFC		LFHD		LWRR		C7		LPSI		RToe		RMT1		RMT5		RMFC		CLAV		RTB3		RTB1		LMFC		RTB4		LTH1		LTH3		RTH2		RCAL		RASI		RLMAL		LTB2		RMMAL		LTB4		LBHD		RBHD		RTH4		RBack		LTB3		RUA1		LMMAL		LTH4		RElbow		RTH1		LCAL		T10		LElbowM		LLMAL		RElbowM
			X1	Y1	Z1	X2	Y2	Z2	X3	Y3	Z3	X4	Y4	Z4	X5	Y5	Z5	X6	Y6	Z6	X7	Y7	Z7	X8	Y8	Z8	X9	Y9	Z9	X10	Y10	Z10	X11	Y11	Z11	X12	Y12	Z12	X13	Y13	Z13	X14	Y14	Z14	X15	Y15	Z15	X16	Y16	Z16	X17	Y17	Z17	X18	Y18	Z18	X19	Y19	Z19	X20	Y20	Z20	X21	Y21	Z21	X22	Y22	Z22	X23	Y23	Z23	X24	Y24	Z24	X25	Y25	Z25	X26	Y26	Z26	X27	Y27	Z27	X28	Y28	Z28	X29	Y29	Z29	X30	Y30	Z30	X31	Y31	Z31	X32	Y32	Z32	X33	Y33	Z33	X34	Y34	Z34	X35	Y35	Z35	X36	Y36	Z36	X37	Y37	Z37	X38	Y38	Z38	X39	Y39	Z39	X40	Y40	Z40	X41	Y41	Z41	X42	Y42	Z42	X43	Y43	Z43	X44	Y44	Z44	X45	Y45	Z45	X46	Y46	Z46	X47	Y47	Z47	X48	Y48	Z48	X49	Y49	Z49	X50	Y50	Z50	X51	Y51	Z51	X52	Y52	Z52	X53	Y53	Z53	X54	Y54	Z54	X55	Y55	Z55	X56	Y56	Z56	X57	Y57	Z57	X58	Y58	Z58	X59	Y59	Z59	X60	Y60	Z60	X61	Y61	Z61

721	3.605	971.89	875.15	389.21	1182	43.545	-17.696	1083.8	28.475	-91.046	951.32	369.22	-12.218	904.45	898.03	387.51	889.19	502.72	-121.18	967.36	918.03	328.84	949.64	1692.1	119.48	810.51	1496.4	228.67	891.97	1042.9	360.34	1125.5	48.515	-3.1452	785.45	1334.8	-218.7	810.31	1029.2	-271.44	914.07	751.11	-154.82	741.99	1167.2	-259.41	933.07	1293.8	38.443	799.14	1522	-142.81	834.24	860.37	-289.15	873.09	1031.8	-113.82	678.18	638.06	235.95	548.58	294.56	201.13	766.26	904.86	-290.13	636.1	1060.4	83.129	655.48	508.22	232.28	955.12	1698	14.317	837.69	897.64	-230.92	698.83	1552.4	53.62	641.34	1068.5	-26.234	513.59	32.083	116.4	478.27	56.652	104.89	428.02	50.726	192.71	661.9	497.11	85.559	866.59	1465.5	30.83	493.87	235.5	131.05	613.6	360.04	147.06	886.6	500.17	21.731	552.43	295.16	140.77	835.16	816.32	-175.4	879.71	650.38	-145.9	746.09	716.63	244.72	308.6	186.78	121.7	846.55	1029.6	200.95	371.64	173.05	167.02	989.15	285.98	-65.662	417.82	177.18	77.316	962.47	285.21	-7.7143	789.21	1691.4	-14.174	777.99	1686.6	127.14	685.35	721.03	242.98	644.1	1430.5	173.36	977.79	200.9	-4.1292	808.27	1317.1	303.46	980.87	97.432	35.102	857.24	732.9	-162.71	784.7	1154.9	350.97	694.48	808.36	250.85	902.4	43.725	-22.38	654.92	1195.5	32.714	708.57	1143	-174.34	964.99	68.821	-63.019	760.55	1123.3	262.68
722	3.61	974.88	875.43	388.84	1182.3	42.765	-17.546	1083.8	28.418	-91.193	952.88	369.38	-12.65	907.59	898.85	387.06	891.59	503.12	-121.83	970.76	918.45	328.5	954.99	1693.2	118.66	816.23	1497.7	227.79	895.93	1043.8	359.88	1125.7	48.419	-2.985	791.24	1336.1	-219.4	816.72	1030.6	-272.17	918.46	751.54	-155.54	747.95	1168.4	-260.22	938.55	1294.9	37.722	804.66	1523.3	-143.45	841.17	861.87	-289.79	878.36	1033.2	-114.73	687.07	637.51	236.02	556.04	296.31	201.76	773.06	906.21	-290.78	641.46	1061.3	82.634	665.59	508.15	232.91	960.5	1699.1	13.488	844.86	899.03	-231.78	704.24	1553.4	52.918	646.79	1069.6	-26.769	514.67	31.794	116.78	480.58	57.99	105.36	429.8	53.076	192.5	672.81	496.26	86.221	872.03	1466.7	30.073	500.66	238.01	131.55	622.08	360.6	147.6	888.82	500.71	20.752	560.21	296.6	141.69	840.13	817.36	-176.09	883.34	651.13	-146.43	754.17	716.86	244.48	315.01	193.34	121.6	852.04	1030.6	199.88	377.23	177.77	167.23	990.33	285.91	-65.968	423.91	180.84	77.73	963.6	285.33	-8.0419	794.59	1692.4	-15.022	783.34	1687.8	126.28	693.37	720.62	242.72	649.85	1431.8	173.04	978.49	200.97	-4.3511	813.67	1318.4	302.62	981.02	97.528	35.055	861.5	733.79	-163.25	789.25	1156.3	350.15	701.6	808.05	250.15	902.46	43.768	-22.46	660.32	1196.5	32.105	714.58	1144.3	-175.12	965.16	68.556	-63.101	765.31	1125	261.88
723	3.615	977.86	875.67	388.47	1182.5	42.006	-17.406	1083.8	28.383	-91.314	954.36	369.53	-13.086	910.72	899.65	386.63	893.83	503.47	-122.48	974.15	918.85	328.17	960.32	1694.3	117.86	821.9	1499	226.93	899.88	1044.7	359.45	1125.9	48.337	-2.8287	796.99	1337.4	-220.11	823.13	1032.1	-272.93	922.71	751.87	-156.22	753.88	1169.7	-261.07	943.99	1296	37.048	810.17	1524.5	-144.05	848.16	863.38	-290.43	883.62	1034.5	-115.6	696.02	636.96	236.11	563.74	298.06	202.36	779.9	907.53	-291.42	646.76	1062.3	82.075	675.84	508.07	233.52	965.84	1700.1	12.678	852.09	900.44	-232.64	709.62	1554.4	52.234	652.22	1070.7	-27.363	515.98	31.53	117.26	483.18	59.448	105.88	431.88	55.622	192.34	683.86	495.42	86.85	877.44	1467.8	29.353	507.68	240.55	132.02	630.69	361.19	148.05	890.94	501.17	19.707	568.21	298.14	142.51	845.01	818.34	-176.75	886.77	651.8	-146.98	762.27	717.1	244.27	321.75	199.87	121.52	857.47	1031.7	198.82	383.13	182.51	167.46	991.44	285.83	-66.287	430.27	184.5	78.142	964.68	285.45	-8.3728	799.92	1693.5	-15.842	788.66	1688.9	125.44	701.41	720.2	242.49	655.55	1433	172.73	979.17	201.03	-4.5732	819.04	1319.8	301.81	981.16	97.623	35.025	865.62	734.62	-163.79	793.79	1157.7	349.38	708.73	807.73	249.46	902.52	43.803	-22.532	665.7	1197.6	31.463	720.55	1145.5	-175.95	965.32	68.286	-63.169	770.04	1126.7	261.14
724	3.62	980.84	875.87	388.11	1182.7	41.261	-17.28	1083.8	28.361	-91.416	955.79	369.66	-13.53	913.86	900.41	386.24	895.93	503.79	-123.12	977.53	919.23	327.87	965.61	1695.3	117.1	827.52	1500.2	226.1	903.83	1045.5	359.06	1126	48.261	-2.682	802.71	1338.6	-220.84	829.53	1033.5	-273.72	926.82	752.09	-156.86	759.77	1170.8	-261.95	949.39	1297.1	36.421	815.68	1525.6	-144.64	855.22	864.87	-291.06	888.87	1035.8	-116.43	705.03	636.4	236.2	571.67	299.83	202.9	786.78	908.81	-292.04	652	1063.2	81.454	686.2	507.99	234.1	971.16	1701	11.892	859.35	901.86	-233.5	714.97	1555.3	51.565	657.61	1071.8	-28.01	517.55	31.307	117.82	486.09	61.022	106.44	434.29	58.362	192.23	695.01	494.62	87.438	882.82	1468.9	28.672	514.94	243.13	132.45	639.4	361.81	148.38	892.96	501.54	18.589	576.43	299.77	143.22	849.78	819.26	-177.39	889.99	652.38	-147.55	770.38	717.36	244.08	328.81	206.33	121.45	862.84	1032.7	197.8	389.33	187.26	167.69	992.48	285.73	-66.623	436.89	188.18	78.545	965.73	285.56	-8.7107	805.22	1694.4	-16.633	793.95	1690	124.63	709.48	719.77	242.27	661.21	1434.2	172.42	979.83	201.09	-4.7982	824.38	1321.1	301.04	981.31	97.717	35.002	869.6	735.37	-164.33	798.31	1159.1	348.65	715.84	807.4	248.8	902.56	43.832	-22.598	671.05	1198.5	30.792	726.47	1146.6	-176.83	965.46	68.016	-63.228	774.74	1128.3	260.45
